<svg width="144" height="100" viewBox="0 0 144 100" fill="none" xmlns="http://www.w3.org/2000/svg">
<g id="0&#209;&#128;">
<path d="M33.2382 79.9117C26.8121 79.9117 21.0878 78.3297 16.0651 75.1656C11.0425 72.0015 7.09081 67.4393 4.21017 61.479C1.40339 55.4452 0 48.2708 0 39.9558C0 31.6409 1.40339 24.5033 4.21017 18.543C7.09081 12.5092 11.0425 7.91022 16.0651 4.74613C21.0878 1.58205 26.8121 0 33.2382 0C39.6642 0 45.3886 1.58205 50.4112 4.74613C55.4339 7.91022 59.3486 12.5092 62.1554 18.543C65.036 24.5033 66.4763 31.6409 66.4763 39.9558C66.4763 48.2708 65.036 55.4452 62.1554 61.479C59.3486 67.4393 55.4339 72.0015 50.4112 75.1656C45.3886 78.3297 39.6642 79.9117 33.2382 79.9117ZM33.2382 64.7903C37.9654 64.7903 41.6585 62.7667 44.3175 58.7196C47.0505 54.6726 48.4169 48.418 48.4169 39.9558C48.4169 31.4937 47.0505 25.2391 44.3175 21.192C41.6585 17.145 37.9654 15.1214 33.2382 15.1214C28.5848 15.1214 24.8917 17.145 22.1588 21.192C19.4997 25.2391 18.1702 31.4937 18.1702 39.9558C18.1702 48.418 19.4997 54.6726 22.1588 58.7196C24.8917 62.7667 28.5848 64.7903 33.2382 64.7903Z" fill="#2E9375"/>
<path d="M114.307 18.3223C119.847 18.3223 124.87 19.61 129.375 22.1854C133.955 24.6873 137.537 28.2561 140.122 32.8918C142.707 37.454 144 42.7888 144 48.8962C144 55.0037 142.707 60.3753 140.122 65.011C137.537 69.5732 133.955 73.142 129.375 75.7174C124.87 78.2193 119.847 79.4702 114.307 79.4702C106.699 79.4702 100.717 77.0787 96.3586 72.2958V100H79.0748V19.2053H95.5831V26.0486C99.8671 20.8977 106.108 18.3223 114.307 18.3223ZM111.316 65.3422C115.748 65.3422 119.367 63.8705 122.174 60.9272C125.054 57.9102 126.495 53.8999 126.495 48.8962C126.495 43.8926 125.054 39.9191 122.174 36.9757C119.367 33.9588 115.748 32.4503 111.316 32.4503C106.884 32.4503 103.228 33.9588 100.347 36.9757C97.5404 39.9191 96.137 43.8926 96.137 48.8962C96.137 53.8999 97.5404 57.9102 100.347 60.9272C103.228 63.8705 106.884 65.3422 111.316 65.3422Z" fill="#2E9375"/>
</g>
</svg>
