<svg width="85" height="59" viewBox="0 0 85 59" fill="none" xmlns="http://www.w3.org/2000/svg">
<path d="M19.6105 47.1479C15.8191 47.1479 12.4418 46.2145 9.47842 44.3477C6.51505 42.4809 4.18358 39.7892 2.484 36.2726C0.828 32.7127 0 28.4798 0 23.574C0 18.6681 0.828 14.457 2.484 10.9404C4.18358 7.38042 6.51505 4.66703 9.47842 2.80022C12.4418 0.933407 15.8191 0 19.6105 0C23.4019 0 26.7792 0.933407 29.7426 2.80022C32.706 4.66703 35.0157 7.38042 36.6717 10.9404C38.3712 14.457 39.221 18.6681 39.221 23.574C39.221 28.4798 38.3712 32.7127 36.6717 36.2726C35.0157 39.7892 32.706 42.4809 29.7426 44.3477C26.7792 46.2145 23.4019 47.1479 19.6105 47.1479ZM19.6105 38.2263C22.3996 38.2263 24.5785 37.0324 26.1474 34.6446C27.7598 32.2568 28.566 28.5666 28.566 23.574C28.566 18.5813 27.7598 14.8911 26.1474 12.5033C24.5785 10.1155 22.3996 8.92163 19.6105 8.92163C16.865 8.92163 14.6861 10.1155 13.0737 12.5033C11.5048 14.8911 10.7204 18.5813 10.7204 23.574C10.7204 28.5666 11.5048 32.2568 13.0737 34.6446C14.6861 37.0324 16.865 38.2263 19.6105 38.2263Z" fill="#2E9375"/>
<path d="M67.4413 10.8102C70.7097 10.8102 73.673 11.5699 76.3314 13.0894C79.0333 14.5655 81.1468 16.6711 82.6721 19.4062C84.1974 22.0979 84.96 25.2454 84.96 28.8488C84.96 32.4522 84.1974 35.6214 82.6721 38.3565C81.1468 41.0482 79.0333 43.1538 76.3314 44.6733C73.673 46.1494 70.7097 46.8874 67.4413 46.8874C62.9526 46.8874 59.4227 45.4765 56.8516 42.6545V59H46.6541V11.3311H56.394V15.3687C58.9216 12.3297 62.604 10.8102 67.4413 10.8102ZM65.6763 38.5519C68.2911 38.5519 70.4264 37.6836 72.0824 35.947C73.782 34.167 74.6318 31.801 74.6318 28.8488C74.6318 25.8966 73.782 23.5522 72.0824 21.8157C70.4264 20.0357 68.2911 19.1457 65.6763 19.1457C63.0616 19.1457 60.9044 20.0357 59.2049 21.8157C57.5489 23.5522 56.7209 25.8966 56.7209 28.8488C56.7209 31.801 57.5489 34.167 59.2049 35.947C60.9044 37.6836 63.0616 38.5519 65.6763 38.5519Z" fill="#2E9375"/>
</svg>
