<svg width="142" height="163" viewBox="0 0 142 163" fill="none" xmlns="http://www.w3.org/2000/svg">
<path d="M142 132.781V163H8.09982V138.962L76.4421 80.5843C83.6982 74.3268 88.5918 68.985 91.123 64.559C93.6542 59.9803 94.9198 55.478 94.9198 51.052C94.9198 44.6418 92.473 39.7579 87.5793 36.4003C82.8544 32.89 75.8514 31.1348 66.5704 31.1348C58.8081 31.1348 51.8051 32.5084 45.5615 35.2556C39.3179 37.8502 34.0868 41.8183 29.8681 47.1601L0 29.7612C6.9186 20.4513 16.4528 13.2018 28.6025 8.01263C40.7522 2.67088 54.6738 0 70.3672 0C83.5294 0 95.0042 1.98408 104.791 5.95224C114.747 9.76779 122.425 15.2622 127.825 22.4354C133.394 29.456 136.178 37.7739 136.178 47.389C136.178 56.0885 134.153 64.2537 130.103 71.8848C126.053 79.5159 118.207 88.2153 106.563 97.9831L65.8111 132.781H142Z" fill="white" fill-opacity="0.4"/>
</svg>
