<svg width="128" height="163" viewBox="0 0 128 163" fill="none" xmlns="http://www.w3.org/2000/svg">
<path d="M84.3375 65.2458C98.4321 67.5351 109.233 72.8006 116.74 81.0421C124.247 89.1311 128 99.2041 128 111.261C128 120.571 125.549 129.194 120.646 137.131C115.744 144.914 108.237 151.172 98.1257 155.903C88.1676 160.634 75.9114 163 61.3573 163C50.0203 163 38.8366 161.55 27.8061 158.65C16.9288 155.598 7.66008 151.324 0 145.83L14.4776 117.442C20.6056 122.021 27.6529 125.608 35.6194 128.202C43.7391 130.644 52.012 131.865 60.4381 131.865C69.7834 131.865 77.137 130.11 82.4991 126.6C87.8612 122.937 90.5422 117.824 90.5422 111.261C90.5422 98.1358 80.5075 91.573 60.4381 91.573H43.4327V67.0773L76.5242 29.7612H8.04309V0H120.646V24.0379L84.3375 65.2458Z" fill="white" fill-opacity="0.4"/>
</svg>
