<svg width="195" height="80" viewBox="0 0 195 80" fill="none" xmlns="http://www.w3.org/2000/svg">
<path d="M0 40.4444H31.6021V54.3333H0V40.4444Z" fill="#2E9375"/>
<path d="M75.958 32.5555C82.807 33.6667 88.0554 36.2222 91.7033 40.2222C95.3511 44.1481 97.175 49.037 97.175 54.8889C97.175 59.4074 95.9839 63.5926 93.6016 67.4444C91.2194 71.2222 87.5715 74.2593 82.6581 76.5555C77.8192 78.8518 71.8635 80 64.7912 80C59.2822 80 53.8477 79.2963 48.4876 77.8889C43.202 76.4074 38.698 74.3333 34.9758 71.6667L42.0109 57.8889C44.9887 60.1111 48.4132 61.8518 52.2843 63.1111C56.23 64.2963 60.25 64.8889 64.3445 64.8889C68.8857 64.8889 72.4591 64.037 75.0647 62.3333C77.6703 60.5556 78.9731 58.0741 78.9731 54.8889C78.9731 48.5185 74.0969 45.3333 64.3445 45.3333H56.0811V33.4444L72.1613 15.3333H38.8841V0.888884H93.6016V12.5556L75.958 32.5555Z" fill="#2E9375"/>
<path d="M122.527 42.8889C116.795 42.8889 112.105 40.963 108.457 37.1111C104.884 33.1852 103.097 27.963 103.097 21.4444C103.097 14.9259 104.884 9.74074 108.457 5.88889C112.105 1.96296 116.795 0 122.527 0C128.26 0 132.912 1.96296 136.486 5.88889C140.059 9.74074 141.846 14.9259 141.846 21.4444C141.846 27.963 140.059 33.1852 136.486 37.1111C132.912 40.963 128.26 42.8889 122.527 42.8889ZM169.093 0.888884H182.381L129.004 78.6667H115.715L169.093 0.888884ZM122.527 33.7778C125.058 33.7778 127.031 32.7407 128.446 30.6667C129.935 28.5926 130.679 25.5185 130.679 21.4444C130.679 17.3704 129.935 14.2963 128.446 12.2222C127.031 10.1481 125.058 9.11111 122.527 9.11111C120.071 9.11111 118.098 10.1852 116.609 12.3333C115.12 14.4074 114.375 17.4444 114.375 21.4444C114.375 25.4444 115.12 28.5185 116.609 30.6667C118.098 32.7407 120.071 33.7778 122.527 33.7778ZM175.57 79.5555C171.847 79.5555 168.497 78.7037 165.52 77C162.616 75.2222 160.346 72.7037 158.708 69.4444C157.07 66.1852 156.251 62.4074 156.251 58.1111C156.251 53.8148 157.07 50.037 158.708 46.7778C160.346 43.5185 162.616 41.037 165.52 39.3333C168.497 37.5555 171.847 36.6667 175.57 36.6667C181.302 36.6667 185.955 38.6296 189.528 42.5556C193.176 46.4074 195 51.5926 195 58.1111C195 64.6296 193.176 69.8519 189.528 73.7778C185.955 77.6296 181.302 79.5555 175.57 79.5555ZM175.57 70.4444C178.101 70.4444 180.074 69.4074 181.488 67.3333C182.977 65.1852 183.721 62.1111 183.721 58.1111C183.721 54.1111 182.977 51.0741 181.488 49C180.074 46.8518 178.101 45.7778 175.57 45.7778C173.113 45.7778 171.14 46.8148 169.651 48.8889C168.162 50.963 167.418 54.037 167.418 58.1111C167.418 62.1852 168.162 65.2593 169.651 67.3333C171.14 69.4074 173.113 70.4444 175.57 70.4444Z" fill="#2E9375"/>
</svg>
