<svg width="128" height="163" viewBox="0 0 128 163" fill="none" xmlns="http://www.w3.org/2000/svg">
<path d="M61.7061 60.2093C84.3393 60.2093 101.008 64.7116 111.713 73.7163C122.571 82.721 128 94.7781 128 109.888C128 119.655 125.553 128.584 120.66 136.673C115.766 144.609 108.272 151.019 98.1792 155.903C88.239 160.634 75.9283 163 61.2473 163C49.9307 163 38.767 161.55 27.7563 158.65C16.8984 155.598 7.64636 151.324 0 145.83L14.681 117.442C20.7981 122.021 27.8327 125.608 35.785 128.202C43.7372 130.644 51.9188 131.865 60.3298 131.865C69.6583 131.865 76.9988 130.034 82.3513 126.371C87.7037 122.708 90.3799 117.595 90.3799 111.032C90.3799 104.164 87.5508 98.9752 81.8925 95.4649C76.3871 91.9546 66.7527 90.1994 52.9893 90.1994H11.9283L20.1864 0H118.136V29.7612H51.1541L48.6308 60.2093H61.7061Z" fill="white" fill-opacity="0.4"/>
</svg>
