<svg width="196" height="80" viewBox="0 0 196 80" fill="none" xmlns="http://www.w3.org/2000/svg">
<g id="-5%">
<path d="M0 40.4444H31.3608V54.3333H0V40.4444Z" fill="#2E9375"/>
<path d="M67.9014 30.1111C78.8352 30.1111 86.8878 32.2963 92.0592 36.6667C97.3045 41.037 99.9272 46.8889 99.9272 54.2222C99.9272 58.963 98.7451 63.2963 96.3811 67.2222C94.017 71.0741 90.397 74.1852 85.5211 76.5556C80.7191 78.8519 74.772 80 67.6798 80C62.2129 80 56.8199 79.2963 51.5007 77.8889C46.2554 76.4074 41.7859 74.3333 38.092 71.6667L45.1842 57.8889C48.1393 60.1111 51.5376 61.8519 55.3793 63.1111C59.2209 64.2963 63.1733 64.8889 67.2365 64.8889C71.743 64.8889 75.2891 64 77.8748 62.2222C80.4605 60.4444 81.7534 57.963 81.7534 54.7778C81.7534 51.4444 80.3867 48.9259 77.6532 47.2222C74.9936 45.5185 70.3394 44.6667 63.6904 44.6667H43.8544L47.8438 0.888884H95.1621V15.3333H62.8039L61.5849 30.1111H67.9014Z" fill="#2E9375"/>
<path d="M124.081 42.8889C118.392 42.8889 113.738 40.963 110.118 37.1111C106.572 33.1852 104.799 27.963 104.799 21.4444C104.799 14.9259 106.572 9.74074 110.118 5.88889C113.738 1.96296 118.392 0 124.081 0C129.769 0 134.386 1.96296 137.933 5.88889C141.479 9.74074 143.252 14.9259 143.252 21.4444C143.252 27.963 141.479 33.1852 137.933 37.1111C134.386 40.963 129.769 42.8889 124.081 42.8889ZM170.291 0.888884H183.478L130.508 78.6667H117.321L170.291 0.888884ZM124.081 33.7778C126.592 33.7778 128.55 32.7407 129.954 30.6667C131.431 28.5926 132.17 25.5185 132.17 21.4444C132.17 17.3704 131.431 14.2963 129.954 12.2222C128.55 10.1481 126.592 9.11111 124.081 9.11111C121.643 9.11111 119.685 10.1852 118.207 12.3333C116.73 14.4074 115.991 17.4444 115.991 21.4444C115.991 25.4444 116.73 28.5185 118.207 30.6667C119.685 32.7407 121.643 33.7778 124.081 33.7778ZM176.718 79.5556C173.024 79.5556 169.7 78.7037 166.745 77C163.863 75.2222 161.61 72.7037 159.985 69.4445C158.36 66.1852 157.547 62.4074 157.547 58.1111C157.547 53.8148 158.36 50.037 159.985 46.7778C161.61 43.5185 163.863 41.037 166.745 39.3333C169.7 37.5556 173.024 36.6667 176.718 36.6667C182.407 36.6667 187.024 38.6296 190.57 42.5556C194.19 46.4074 196 51.5926 196 58.1111C196 64.6296 194.19 69.8519 190.57 73.7778C187.024 77.6296 182.407 79.5556 176.718 79.5556ZM176.718 70.4445C179.23 70.4445 181.188 69.4074 182.591 67.3333C184.069 65.1852 184.808 62.1111 184.808 58.1111C184.808 54.1111 184.069 51.0741 182.591 49C181.188 46.8519 179.23 45.7778 176.718 45.7778C174.28 45.7778 172.322 46.8148 170.845 48.8889C169.367 50.963 168.629 54.037 168.629 58.1111C168.629 62.1852 169.367 65.2593 170.845 67.3333C172.322 69.4074 174.28 70.4445 176.718 70.4445Z" fill="#2E9375"/>
</g>
</svg>
