<svg width="28" height="29" viewBox="0 0 28 29" fill="none" xmlns="http://www.w3.org/2000/svg">
<path d="M2.79036 0.515876C2.30889 0.691201 2.02438 0.910358 1.19275 1.75959C0.175093 2.79511 0.0328404 3.04714 0.00548407 3.89089C-0.0218723 4.49905 0.0492542 4.81683 0.306404 5.28253C0.393944 5.44142 2.06815 7.15632 4.88586 9.97797L9.32306 14.4323L4.8585 18.9086C0.629209 23.1493 0.383002 23.4123 0.207921 23.7739C0.0492542 24.1136 0.0218979 24.2232 0.00548407 24.7053C-0.0328148 25.7189 0.169622 26.1134 1.36783 27.2859C1.95326 27.8612 2.23776 28.0967 2.48397 28.2173C2.8013 28.3707 2.8396 28.3762 3.60558 28.3762C4.37156 28.3762 4.40986 28.3707 4.72719 28.2173C5.0117 28.0748 5.62448 27.4831 9.5255 23.5876L14.001 19.1168L18.4765 23.5876C22.4158 27.5324 22.9848 28.0803 23.2748 28.2173C23.5812 28.3652 23.6578 28.3762 24.3526 28.3926C25.1022 28.409 25.1022 28.409 25.4743 28.2337C25.7806 28.0913 25.9886 27.9159 26.6561 27.2585C27.8488 26.086 28.0293 25.7408 27.9965 24.7327C27.9801 24.2177 27.9582 24.1191 27.7941 23.7739C27.619 23.4123 27.3728 23.1493 23.1435 18.9141L18.6789 14.4323L23.1435 9.95605C28.3686 4.71821 27.9801 5.18939 27.9801 4.02238C27.9801 3.35396 27.9746 3.32656 27.7941 2.95399C27.6409 2.63074 27.4767 2.4335 26.7272 1.68836C25.9831 0.943231 25.7861 0.773385 25.4633 0.619975C25.0913 0.439171 25.0639 0.433692 24.3964 0.433692C23.231 0.433692 23.7016 0.0446887 18.4765 5.27706L14.001 9.74785L9.55833 5.30445C7.11267 2.86085 5.02264 0.806258 4.91322 0.740511C4.32779 0.395339 3.40314 0.296719 2.79036 0.515876Z" fill="#E9E9E9"/>
</svg>
