<svg width="55" height="55" viewBox="0 0 55 55" fill="none" xmlns="http://www.w3.org/2000/svg">
<path d="M53.7896 26.2822C53.7944 26.2822 53.798 26.2822 53.8028 26.2822C54.1378 26.2822 54.4572 26.1417 54.6841 25.8955C54.9146 25.6458 55.0287 25.3108 54.9987 24.9722C53.7932 11.713 43.2955 1.21176 30.0351 0.00386935C29.6989 -0.0225458 29.3603 0.0867171 29.1106 0.31845C28.8608 0.548983 28.7216 0.87437 28.7252 1.21417C28.9341 18.8355 31.2586 26.036 53.7896 26.2822Z" fill="black"/>
<path d="M53.7897 28.7168C31.2588 28.9629 28.9354 36.1635 28.7265 53.7848C28.7229 54.1246 28.8622 54.45 29.1119 54.6805C29.3352 54.8858 29.627 54.9999 29.9272 54.9999C29.9632 54.9999 30.0004 54.9987 30.0364 54.9951C43.2969 53.7872 53.7945 43.2872 54.9988 30.0267C55.0288 29.6882 54.9159 29.3532 54.6842 29.1034C54.4525 28.8537 54.1295 28.73 53.7897 28.7168Z" fill="black"/>
<path d="M24.8877 0.00901326C11.6693 1.25173 1.20532 11.7506 0.00582593 24.9738C-0.0241913 25.3124 0.0886737 25.6473 0.320407 25.8971C0.547337 26.1432 0.867922 26.2825 1.20171 26.2825C1.20652 26.2825 1.21132 26.2825 1.21612 26.2825C23.6726 26.0244 25.9912 18.8274 26.2025 1.21811C26.2061 0.878313 26.0656 0.551725 25.8159 0.321193C25.5637 0.0906602 25.2263 -0.0222047 24.8877 0.00901326Z" fill="black"/>
<path d="M1.21502 28.7161C0.841603 28.6741 0.548635 28.8518 0.319303 29.1015C0.0887703 29.3513 -0.0252954 29.6863 0.00472188 30.0249C1.20421 43.2481 11.6694 53.7469 24.8878 54.9896C24.925 54.9932 24.9635 54.9944 25.0007 54.9944C25.3009 54.9944 25.5914 54.8816 25.8148 54.6762C26.0645 54.4457 26.205 54.1191 26.2014 53.7793C25.9901 36.1712 23.6727 28.9743 1.21502 28.7161Z" fill="black"/>
</svg>
