<svg width="28" height="28" viewBox="0 0 28 28" fill="none" xmlns="http://www.w3.org/2000/svg">
<path d="M2.79036 0.116462C2.30889 0.291787 2.02438 0.510944 1.19275 1.36018C0.175093 2.39569 0.0328404 2.64772 0.00548407 3.49148C-0.0218723 4.09964 0.0492542 4.41741 0.306404 4.88312C0.393944 5.04201 2.06815 6.75691 4.88586 9.57855L9.32306 14.0329L4.8585 18.5092C0.629209 22.7499 0.383002 23.0129 0.207921 23.3745C0.0492542 23.7142 0.0218979 23.8237 0.00548407 24.3059C-0.0328148 25.3195 0.169622 25.714 1.36783 26.8865C1.95326 27.4617 2.23776 27.6973 2.48397 27.8179C2.8013 27.9713 2.8396 27.9768 3.60558 27.9768C4.37156 27.9768 4.40986 27.9713 4.72719 27.8179C5.0117 27.6754 5.62448 27.0837 9.5255 23.1882L14.001 18.7174L18.4765 23.1882C22.4158 27.133 22.9848 27.6809 23.2748 27.8179C23.5812 27.9658 23.6578 27.9768 24.3526 27.9932C25.1022 28.0096 25.1022 28.0096 25.4743 27.8343C25.7806 27.6919 25.9886 27.5165 26.6561 26.8591C27.8488 25.6866 28.0293 25.3414 27.9965 24.3333C27.9801 23.8183 27.9582 23.7196 27.7941 23.3745C27.619 23.0129 27.3728 22.7499 23.1435 18.5147L18.6789 14.0329L23.1435 9.55664C28.3686 4.31879 27.9801 4.78998 27.9801 3.62297C27.9801 2.95454 27.9746 2.92715 27.7941 2.55458C27.6409 2.23132 27.4767 2.03408 26.7272 1.28895C25.9831 0.543817 25.7861 0.373971 25.4633 0.220561C25.0913 0.0397568 25.0639 0.0342778 24.3964 0.0342778C23.231 0.0342778 23.7016 -0.354725 18.4765 4.87764L14.001 9.34844L9.55833 4.90504C7.11267 2.46144 5.02264 0.406844 4.91322 0.341097C4.32779 -0.00407459 3.40314 -0.102695 2.79036 0.116462Z" fill="#2E9375"/>
</svg>
