<svg width="125" height="125" viewBox="0 0 125 125" fill="none" xmlns="http://www.w3.org/2000/svg">
<g id="Group 75">
<rect id="Rectangle 89" width="125" height="125" fill="#2E9375"/>
<g id="Group 63">
<g id="Vector">
<mask id="path-2-inside-1_124_689" fill="white">
<path d="M23.3334 62.6395C23.3315 69.6252 25.165 76.4462 28.6514 82.4584L23 103L44.1164 97.488C49.9569 100.653 56.5008 102.312 63.1507 102.312H63.1682C85.1207 102.312 102.991 84.5289 103 62.6708C103.004 52.079 98.8646 42.1192 91.3434 34.6259C83.8236 27.1333 73.8225 23.0048 63.1665 23C41.2114 23 23.3428 40.7824 23.3337 62.6395"/>
</mask>
<path d="M28.6514 82.4584L33.4723 83.7847L34.0283 81.7635L32.9767 79.9501L28.6514 82.4584ZM23 103L18.1791 101.674L15.8813 110.026L24.2628 107.838L23 103ZM44.1164 97.488L46.4988 93.0921L44.7634 92.1516L42.8536 92.6501L44.1164 97.488ZM63.1507 102.312L63.1504 107.312H63.1507V102.312ZM103 62.6708L108 62.673V62.6728L103 62.6708ZM91.3434 34.6259L87.8143 38.1679L87.8145 38.168L91.3434 34.6259ZM63.1665 23L63.1688 18H63.1665V23ZM18.3334 62.6382C18.3312 70.5028 20.3963 78.1899 24.326 84.9666L32.9767 79.9501C29.9337 74.7025 28.3317 68.7476 28.3334 62.6409L18.3334 62.6382ZM23.8305 81.132L18.1791 101.674L27.8209 104.326L33.4723 83.7847L23.8305 81.132ZM24.2628 107.838L45.3792 102.326L42.8536 92.6501L21.7372 98.1621L24.2628 107.838ZM41.734 101.884C48.3067 105.446 55.6695 107.312 63.1504 107.312L63.151 97.3123C57.3321 97.3119 51.6071 95.8606 46.4988 93.0921L41.734 101.884ZM63.1507 107.312H63.1682V97.3123H63.1507V107.312ZM63.1682 107.312C87.8606 107.312 107.989 87.3122 108 62.673L98 62.6687C97.9918 81.7455 82.3808 97.3123 63.1682 97.3123V107.312ZM108 62.6728C108.005 50.7475 103.333 39.5133 94.8724 31.0838L87.8145 38.168C94.3959 44.725 98.0037 53.4105 98 62.6688L108 62.6728ZM94.8726 31.084C86.4128 22.6549 75.1423 18.0054 63.1688 18L63.1643 28C72.5028 28.0042 81.2344 31.6118 87.8143 38.1679L94.8726 31.084ZM63.1665 18C38.4717 18 18.344 37.9988 18.3337 62.6375L28.3337 62.6416C28.3417 43.566 43.9511 28 63.1665 28V18Z" fill="white" mask="url(#path-2-inside-1_124_689)"/>
</g>
<path id="Vector_2" d="M52.8608 45.4672C52.0884 43.7583 51.2756 43.7238 50.541 43.6938C49.9396 43.668 49.252 43.67 48.5651 43.67C47.8775 43.67 46.7604 43.9274 45.8161 44.9538C44.8709 45.9812 42.2074 48.4639 42.2074 53.5135C42.2074 58.5633 45.9019 63.4433 46.417 64.1288C46.9326 64.8129 53.5493 75.5069 64.0285 79.6209C72.7377 83.0398 74.51 82.3598 76.4002 82.1884C78.2906 82.0176 82.5002 79.7063 83.359 77.3096C84.2185 74.9133 84.2185 72.8592 83.9608 72.4299C83.7031 72.0023 83.0155 71.7454 81.9845 71.2324C80.9532 70.719 75.8845 68.236 74.9396 67.8934C73.9943 67.5512 73.3071 67.3804 72.6195 68.4081C71.932 69.4342 69.9576 71.7454 69.3559 72.4299C68.7547 73.116 68.1529 73.2014 67.1222 72.6881C66.0906 72.1731 62.7703 71.0906 58.831 67.5944C55.7661 64.8738 53.6969 61.5143 53.0955 60.4866C52.494 59.4605 53.031 58.9043 53.548 58.3928C54.0112 57.933 54.5794 57.1943 55.0954 56.5953C55.6094 55.9958 55.781 55.5682 56.1248 54.8837C56.4689 54.1986 56.2967 53.5992 56.0393 53.0858C55.781 52.5725 53.7775 47.4965 52.8608 45.4672Z" fill="white"/>
</g>
</g>
</svg>
