<svg width="38" height="38" viewBox="0 0 38 38" fill="none" xmlns="http://www.w3.org/2000/svg">
<g id="Group 63">
<path id="Vector" d="M0.158376 18.8288C0.157454 22.147 1.02837 25.387 2.6844 28.2427L0 38L10.0303 35.3818C12.8045 36.8853 15.9129 37.6731 19.0716 37.6733H19.0799C29.5073 37.6733 37.9955 29.2262 38 18.8436C38.002 13.8125 36.0357 9.08161 32.4631 5.52232C28.8912 1.96333 24.1407 0.00229612 19.0791 0C8.65042 0 0.162835 8.44666 0.15853 18.8288" fill="url(#paint0_linear_113_603)"/>
<path id="Vector_2" d="M14.1839 10.6711C13.817 9.85934 13.4309 9.84296 13.082 9.82873C12.7963 9.81648 12.4697 9.8174 12.1435 9.8174C11.8169 9.8174 11.2862 9.93971 10.8377 10.4272C10.3887 10.9152 9.12355 12.0945 9.12355 14.4931C9.12355 16.8917 10.8785 19.2097 11.1231 19.5353C11.368 19.8603 14.511 24.9399 19.4886 26.8941C23.6254 28.5181 24.4673 28.1951 25.3651 28.1136C26.2631 28.0325 28.2626 26.9347 28.6706 25.7962C29.0788 24.658 29.0788 23.6823 28.9564 23.4784C28.834 23.2753 28.5074 23.1533 28.0177 22.9096C27.5278 22.6657 25.1202 21.4863 24.6713 21.3236C24.2223 21.161 23.8959 21.0799 23.5693 21.568C23.2427 22.0554 22.3049 23.1533 22.0191 23.4784C21.7335 23.8043 21.4477 23.8448 20.9581 23.601C20.4681 23.3564 18.8909 22.8422 17.0198 21.1815C15.5639 19.8892 14.5811 18.2934 14.2954 17.8053C14.0097 17.3179 14.2648 17.0537 14.5103 16.8108C14.7304 16.5923 15.0002 16.2415 15.2453 15.9569C15.4895 15.6722 15.571 15.4691 15.7343 15.1439C15.8977 14.8185 15.8159 14.5338 15.6937 14.2899C15.571 14.0461 14.6194 11.635 14.1839 10.6711Z" fill="white"/>
</g>
<defs>
<linearGradient id="paint0_linear_113_603" x1="1900" y1="3800" x2="1900" y2="0" gradientUnits="userSpaceOnUse">
<stop stop-color="#1FAF38"/>
<stop offset="1" stop-color="#60D669"/>
</linearGradient>
</defs>
</svg>
