<svg width="35" height="35" viewBox="0 0 35 35" fill="none" xmlns="http://www.w3.org/2000/svg">
<path d="M0.746899 17.3479C0.746079 20.2983 1.52045 23.1792 2.99292 25.7185L0.606079 34.3943L9.52452 32.0663C11.9912 33.4032 14.755 34.1037 17.5636 34.1039H17.571C26.8425 34.1039 34.3898 26.593 34.3938 17.3611C34.3956 12.8876 32.6472 8.68103 29.4707 5.51622C26.2947 2.35169 22.0708 0.607999 17.5703 0.605957C8.2976 0.605957 0.750864 8.11645 0.747036 17.3479" fill="url(#paint0_linear_13_112)"/>
<path d="M0.146289 17.3425C0.145332 20.3991 0.947461 23.383 2.47242 26.0131L0 35L9.23822 32.5886C11.7837 33.9702 14.6496 34.6987 17.5658 34.6997H17.5733C27.1775 34.6997 34.9959 26.9187 35 17.3563C35.0016 12.7221 33.1904 8.3643 29.9004 5.08612C26.61 1.80834 22.235 0.00190552 17.5733 0C7.96742 0 0.150117 7.77999 0.146289 17.3425ZM5.64785 25.5602L5.30291 25.0151C3.85287 22.7197 3.08752 20.0672 3.08861 17.3435C3.09176 9.39546 9.58918 2.92906 17.5788 2.92906C21.4479 2.9307 25.0841 4.43225 27.819 7.15661C30.5538 9.88124 32.0586 13.5031 32.0577 17.3552C32.0541 25.3033 25.5566 31.7705 17.5733 31.7705H17.5675C14.9681 31.7692 12.4187 31.0742 10.1954 29.7609L9.66629 29.4485L4.18414 30.8794L5.64785 25.56V25.5602Z" fill="url(#paint1_linear_13_112)"/>
<path d="M13.2177 10.0923C12.8915 9.37056 12.5482 9.356 12.2379 9.34334C11.9839 9.33245 11.6935 9.33327 11.4034 9.33327C11.113 9.33327 10.6412 9.44202 10.2424 9.87552C9.84318 10.3094 8.71826 11.358 8.71826 13.4907C8.71826 15.6235 10.2786 17.6846 10.4962 17.9741C10.7139 18.2631 13.5085 22.7797 17.9343 24.5173C21.6126 25.9613 22.3612 25.6741 23.1595 25.6017C23.9579 25.5295 25.7358 24.5534 26.0985 23.5411C26.4615 22.529 26.4615 21.6615 26.3527 21.4802C26.2438 21.2996 25.9534 21.1911 25.518 20.9744C25.0824 20.7576 22.9417 19.7088 22.5426 19.5642C22.1434 19.4196 21.8531 19.3475 21.5627 19.7815C21.2723 20.2149 20.4385 21.1911 20.1843 21.4802C19.9304 21.7699 19.6763 21.806 19.241 21.5892C18.8052 21.3717 17.4029 20.9145 15.7392 19.4379C14.4447 18.2888 13.5708 16.8699 13.3168 16.4358C13.0628 16.0025 13.2896 15.7675 13.5079 15.5515C13.7036 15.3573 13.9435 15.0453 14.1614 14.7923C14.3786 14.5392 14.451 14.3585 14.5962 14.0694C14.7415 13.7801 14.6688 13.5269 14.5601 13.3101C14.451 13.0933 13.6049 10.9494 13.2177 10.0923Z" fill="white"/>
<defs>
<linearGradient id="paint0_linear_13_112" x1="1689.99" y1="3379.44" x2="1689.99" y2="0.605957" gradientUnits="userSpaceOnUse">
<stop stop-color="#1FAF38"/>
<stop offset="1" stop-color="#60D669"/>
</linearGradient>
<linearGradient id="paint1_linear_13_112" x1="1750" y1="3500" x2="1750" y2="0" gradientUnits="userSpaceOnUse">
<stop stop-color="#F9F9F9"/>
<stop offset="1" stop-color="white"/>
</linearGradient>
</defs>
</svg>
