<svg width="50" height="50" viewBox="0 0 50 50" fill="none" xmlns="http://www.w3.org/2000/svg">
<mask id="path-1-inside-1_190_848" fill="white">
<path d="M0.20839 24.7747C0.207176 29.1408 1.35312 33.4039 3.53211 37.1615L0 50L13.1978 46.555C16.8481 48.5333 20.938 49.5699 25.0942 49.5702H25.1051C38.8255 49.5702 49.9941 38.4556 50 24.7943C50.0026 18.1744 47.4154 11.9495 42.7147 7.26621C38.0148 2.58333 31.7641 0.00302121 25.1041 0C11.3821 0 0.214257 11.114 0.208592 24.7747"/>
</mask>
<path d="M3.53211 37.1615L8.35299 38.4878L8.90904 36.4666L7.85747 34.6532L3.53211 37.1615ZM0 50L-4.82088 48.6737L-7.11867 57.0257L1.26283 54.8379L0 50ZM13.1978 46.555L15.5801 42.1591L13.8448 41.2186L11.9349 41.7171L13.1978 46.555ZM25.0942 49.5702L25.0939 54.5702H25.0942V49.5702ZM50 24.7943L55 24.7964V24.7962L50 24.7943ZM42.7147 7.26621L39.1855 10.8082L39.1857 10.8083L42.7147 7.26621ZM25.1041 0L25.1064 -5H25.1041V0ZM-4.79161 24.7733C-4.79307 30.0184 -3.41558 35.1476 -0.793253 39.6697L7.85747 34.6532C6.12182 31.6602 5.20742 28.2632 5.20839 24.7761L-4.79161 24.7733ZM-1.28878 35.8352L-4.82088 48.6737L4.82088 51.3263L8.35299 38.4878L-1.28878 35.8352ZM1.26283 54.8379L14.4606 51.3929L11.9349 41.7171L-1.26283 45.1621L1.26283 54.8379ZM10.8154 50.9509C15.1979 53.3261 20.1067 54.5699 25.0939 54.5702L25.0945 44.5702C21.7693 44.57 18.4983 43.7406 15.5801 42.1591L10.8154 50.9509ZM25.0942 54.5702H25.1051V44.5702H25.0942V54.5702ZM25.1051 54.5702C41.5654 54.5702 54.9929 41.2389 55 24.7964L45 24.7921C44.9953 35.6722 36.0855 44.5702 25.1051 44.5702V54.5702ZM55 24.7962C55.0032 16.8429 51.884 9.34361 46.2436 3.72411L39.1857 10.8083C42.9467 14.5554 45.0021 19.5059 45 24.7923L55 24.7962ZM46.2438 3.72427C40.604 -1.89511 33.0838 -4.99638 25.1064 -5L25.1018 5C30.4443 5.00242 35.4255 7.06178 39.1855 10.8082L46.2438 3.72427ZM25.1041 -5C8.64247 -5 -4.78459 8.33043 -4.79141 24.7726L5.20859 24.7768C5.2131 13.8976 14.1218 5 25.1041 5V-5Z" fill="#575757" mask="url(#path-1-inside-1_190_848)"/>
<path d="M18.6629 14.0423C18.1801 12.9742 17.6721 12.9526 17.213 12.9339C16.8371 12.9178 16.4074 12.919 15.9781 12.919C15.5484 12.919 14.8502 13.0799 14.26 13.7214C13.6692 14.3635 12.0045 15.9152 12.0045 19.0712C12.0045 22.2273 14.3136 25.2773 14.6355 25.7057C14.9578 26.1333 19.0932 32.8171 25.6427 35.3883C31.0859 37.5251 32.1936 37.1001 33.375 36.993C34.5565 36.8862 37.1875 35.4417 37.7243 33.9438C38.2614 32.446 38.2614 31.1622 38.1004 30.894C37.9393 30.6267 37.5096 30.4661 36.8652 30.1455C36.2206 29.8246 33.0527 28.2728 32.4621 28.0586C31.8713 27.8447 31.4418 27.738 31.0121 28.3803C30.5824 29.0216 29.3484 30.4661 28.9723 30.894C28.5966 31.3228 28.2205 31.3761 27.5763 31.0553C26.9315 30.7334 24.8563 30.0569 22.3943 27.8717C20.4787 26.1714 19.1855 24.0717 18.8096 23.4293C18.4336 22.788 18.7693 22.4404 19.0924 22.1208C19.3819 21.8333 19.737 21.3717 20.0595 20.9973C20.3808 20.6226 20.488 20.3554 20.7029 19.9276C20.9179 19.4994 20.8103 19.1247 20.6495 18.8039C20.488 18.483 19.2358 15.3106 18.6629 14.0423Z" fill="#575757"/>
</svg>
