<svg width="38" height="38" viewBox="0 0 38 38" fill="none" xmlns="http://www.w3.org/2000/svg">
<path d="M19 0C13.962 0 9.12594 2.00302 5.56641 5.56492C2.0032 9.12824 0.00098702 13.9608 0 19C0 24.0371 2.00391 28.8732 5.56641 32.4351C9.12594 35.997 13.962 38 19 38C24.038 38 28.8741 35.997 32.4336 32.4351C35.9961 28.8732 38 24.0371 38 19C38 13.9629 35.9961 9.12683 32.4336 5.56492C28.8741 2.00302 24.038 0 19 0Z" fill="url(#paint0_linear_113_606)"/>
<path d="M8.60046 18.7991C14.1401 16.3861 17.8333 14.7951 19.6798 14.0265C24.9583 11.8317 26.0537 11.4505 26.7692 11.4376C26.9266 11.4351 27.2769 11.474 27.5055 11.6588C27.6955 11.8146 27.7489 12.0254 27.7756 12.1734C27.7994 12.3213 27.832 12.6582 27.8053 12.9212C27.5203 15.9256 26.2823 23.2163 25.653 26.5814C25.3887 28.0052 24.8633 28.4825 24.3556 28.5292C23.2512 28.6307 22.4141 27.8 21.3453 27.0997C19.6739 26.0033 18.7298 25.3211 17.1059 24.2515C15.2297 23.0153 16.4469 22.3357 17.5156 21.2254C17.7947 20.9348 22.6575 16.5128 22.7495 16.1118C22.7614 16.0616 22.7733 15.8746 22.6605 15.776C22.5506 15.6771 22.3873 15.711 22.2686 15.7377C22.0994 15.7757 19.4305 17.5415 14.253 21.0348C13.4959 21.5556 12.8101 21.8094 12.1926 21.796C11.5158 21.7815 10.2095 21.4125 9.23874 21.0972C8.05124 20.7104 7.10421 20.5058 7.18733 19.8488C7.2289 19.5068 7.70093 19.1568 8.60046 18.7991Z" fill="white"/>
<defs>
<linearGradient id="paint0_linear_113_606" x1="1900" y1="0" x2="1900" y2="3800" gradientUnits="userSpaceOnUse">
<stop stop-color="#2AABEE"/>
<stop offset="1" stop-color="#229ED9"/>
</linearGradient>
</defs>
</svg>
