<svg width="55" height="55" viewBox="0 0 55 55" fill="none" xmlns="http://www.w3.org/2000/svg">
<path d="M7.74308 0C3.45583 0 0.00354004 3.45229 0.00354004 7.73954V47.2605C0.00354004 51.5477 3.45583 55 7.74308 55H47.264C51.5513 55 55.0035 51.5477 55.0035 47.2605V7.73954C55.0035 3.45229 51.5513 0 47.264 0H7.74308ZM28.7359 5.62033C34.9775 5.62033 40.0521 10.6971 40.0521 16.9383C40.0521 23.179 34.9775 28.2528 28.7359 28.2528C22.4941 28.2528 17.4162 23.179 17.4162 16.9383C17.4162 10.6971 22.4941 5.62033 28.7359 5.62033ZM28.6156 12.2513C26.0873 12.3156 24.0489 14.3954 24.0489 16.9383C24.0489 19.5205 26.1521 21.6219 28.7359 21.6219C31.3192 21.6219 33.4195 19.5205 33.4195 16.9383C33.4195 14.3551 31.3192 12.2513 28.7359 12.2513C28.6955 12.2513 28.6558 12.2502 28.6156 12.2513ZM19.3652 28.6379C19.9647 28.6399 20.5696 28.8048 21.1149 29.1483C25.7475 32.0612 31.7194 32.0632 36.3534 29.1483C37.9049 28.1712 39.9499 28.6403 40.927 30.1916C41.9029 31.7404 41.4341 33.788 39.8837 34.7635C37.8623 36.034 35.6407 36.9538 33.3129 37.4843L39.6413 43.8127C40.9369 45.1056 40.9369 47.2067 39.6413 48.5015C38.3452 49.7967 36.2482 49.7967 34.9543 48.5015L28.7324 42.283L22.5174 48.5015C21.8703 49.1489 21.0211 49.4726 20.1731 49.4726C19.3242 49.4726 18.4779 49.1481 17.8287 48.5015C16.5334 47.2059 16.5338 45.1083 17.8287 43.8127L24.1537 37.4843C21.8504 36.9591 19.628 36.0476 17.5812 34.7635C16.0338 33.788 15.5685 31.7426 16.5448 30.1916C17.1532 29.2221 18.181 28.6744 19.2449 28.6396C19.285 28.6383 19.3252 28.6377 19.3653 28.6379H19.3652Z" fill="#FF7700"/>
</svg>
