<svg width="64" height="64" viewBox="0 0 64 64" fill="none" xmlns="http://www.w3.org/2000/svg">
<path d="M32 0C25.671 0 19.4841 1.87677 14.2218 5.39297C8.95939 8.90918 4.85787 13.9069 2.43587 19.7541C0.013865 25.6014 -0.619841 32.0355 0.614885 38.2429C1.84961 44.4503 4.89732 50.1521 9.37259 54.6274C13.8479 59.1027 19.5497 62.1504 25.7571 63.3851C31.9645 64.6198 38.3986 63.9861 44.2459 61.5641C50.0931 59.1421 55.0908 55.0406 58.607 49.7782C62.1232 44.5159 64 38.329 64 32C64 23.5131 60.6286 15.3737 54.6274 9.37258C48.6263 3.37142 40.4869 0 32 0ZM49.0217 34.0457L21.5932 47.76C21.2446 47.9342 20.8573 48.0163 20.468 47.9987C20.0788 47.9811 19.7005 47.8642 19.3691 47.6593C19.0377 47.4543 18.7642 47.168 18.5746 46.8276C18.385 46.4872 18.2855 46.1039 18.2857 45.7143V18.2857C18.2859 17.8962 18.3857 17.5133 18.5754 17.1732C18.7652 16.8331 19.0387 16.5471 19.3701 16.3424C19.7014 16.1377 20.0795 16.0211 20.4686 16.0035C20.8577 15.986 21.2448 16.0682 21.5932 16.2423L49.0217 29.9566C49.4009 30.1466 49.7197 30.4384 49.9425 30.7993C50.1653 31.1601 50.2833 31.5759 50.2833 32C50.2833 32.4241 50.1653 32.8399 49.9425 33.2007C49.7197 33.5616 49.4009 33.8534 49.0217 34.0434V34.0457Z" fill="#F8F8F8"/>
</svg>
