<svg width="330" height="55" viewBox="0 0 330 55" fill="none" xmlns="http://www.w3.org/2000/svg">
<path d="M33.0075 33.2574H9.83211V23.9406H33.0075C34.3612 23.9406 35.3025 24.1803 35.7749 24.599C36.2473 25.0176 36.5399 25.794 36.5399 26.9281V30.2735C36.5399 31.4685 36.2473 32.2449 35.7749 32.6635C35.3025 33.0821 34.3612 33.261 33.0075 33.261V33.2574ZM34.5974 15.1569H0.00354004V55.0003H9.83211V42.0375H27.9451L36.5399 55.0003H47.5459L38.0699 41.9768C41.5635 41.4508 43.1322 40.3631 44.426 38.5706C45.7198 36.7781 46.3685 33.9122 46.3685 30.0874V27.0999C46.3685 24.8315 46.1323 23.039 45.7198 21.6651C45.3073 20.2912 44.6023 19.0961 43.6011 18.0228C42.5435 17.0067 41.366 16.2911 39.9524 15.8116C38.5388 15.393 36.7725 15.1533 34.5974 15.1533V15.1569Z" fill="#303030"/>
<path d="M61.3025 43.2316V15.1533H51.4612V42.9918C51.4612 45.2604 51.6376 47.1139 52.0507 48.4879C52.4637 49.9228 53.1696 51.1179 54.2321 52.1306C55.2345 53.204 56.4134 53.9232 57.8251 54.3419C59.2408 54.8177 61.0055 55.0003 63.2472 55.0003H86.0989C88.2802 55.0003 90.0488 54.8213 91.4605 54.3419C92.8762 53.9232 94.0552 53.2076 95.114 52.1306C96.1163 51.1143 96.8222 49.9192 97.2355 48.4879C97.6483 47.1139 97.8849 45.2604 97.8849 42.9918V15.1533H88.0436V43.2316C88.0436 44.4267 87.7511 45.2031 87.2779 45.6217C86.8047 46.0404 85.8623 46.2193 84.507 46.2193H64.839C63.4234 46.2193 62.4809 46.0404 62.0117 45.6217C61.5385 45.2031 61.3058 44.4267 61.3058 43.2316H61.3025Z" fill="#303030"/>
<path d="M133.547 55.0003V23.9342H152.139V15.1533H105.156V23.9342H123.748V55.0003H133.547Z" fill="#303030"/>
<path d="M169.252 43.2316V15.1533H159.41V42.9918C159.41 45.2604 159.587 47.1139 160 48.4879C160.413 49.9228 161.119 51.1179 162.181 52.1306C163.184 53.204 164.363 53.9232 165.774 54.3419C167.19 54.8177 168.955 55.0003 171.196 55.0003H194.048C196.229 55.0003 197.998 54.8213 199.41 54.3419C200.825 53.9232 202.004 53.2076 203.063 52.1306C204.065 51.1143 204.771 49.9192 205.185 48.4879C205.597 47.1139 205.834 45.2604 205.834 42.9918V15.1533H195.993V43.2316C195.993 44.4267 195.7 45.2031 195.227 45.6217C194.758 46.0404 193.811 46.2193 192.456 46.2193H172.788C171.373 46.2193 170.43 46.0404 169.961 45.6217C169.488 45.2031 169.255 44.4267 169.255 43.2316H169.252Z" fill="#303030"/>
<path d="M222.959 46.2193V39.0522H246.254C247.611 39.0522 248.555 39.2919 249.028 39.7105C249.502 40.1292 249.795 40.9057 249.795 42.04V43.2351C249.795 44.4302 249.502 45.2067 249.028 45.6253C248.558 46.044 247.611 46.2229 246.254 46.2229H222.959V46.2193ZM222.959 31.105V23.9378H243.886C245.303 23.9378 246.247 24.1776 246.717 24.5962C247.19 25.0149 247.424 25.7913 247.424 26.9256V28.1207C247.424 29.3159 247.187 30.0923 246.717 30.511C246.247 30.9296 245.3 31.1085 243.886 31.1085H222.959V31.105ZM257.221 26.7432V25.9667C257.221 22.2632 256.278 19.5152 254.39 17.7833C252.503 16.0514 249.491 15.1533 245.48 15.1533H213.105V55.0003H247.788C251.799 55.0003 254.811 54.163 256.698 52.4311C258.585 50.6993 259.529 47.9512 259.529 44.2478V43.4104C259.529 39.707 258.585 37.077 256.698 35.5241C256.345 35.2843 255.991 35.1054 255.634 34.9265C255.281 34.7476 254.387 34.5079 253.739 34.2681C255.037 33.5525 255.924 32.5971 256.454 31.52C256.928 30.443 257.221 28.8328 257.221 26.7396V26.7432Z" fill="#303030"/>
<path d="M274.396 23.9342H309.868V15.1533H264.563V55.0003H309.868V46.2193H274.396V39.4672H305.35V30.6863H274.396V23.9342Z" fill="#303030"/>
<path d="M322.453 15.1531C326.623 15.1531 330.004 11.7609 330.004 7.57653C330.004 3.39213 326.623 0 322.453 0C318.282 0 314.902 3.39213 314.902 7.57653C314.902 11.7609 318.282 15.1531 322.453 15.1531Z" fill="#ED143B"/>
</svg>
