<svg width="25" height="25" viewBox="0 0 25 25" fill="none" xmlns="http://www.w3.org/2000/svg">
<path d="M0 1.04166H4.9625L8.0875 12.5H19.0406L22.2583 2.84895L24.2344 3.50832L20.5417 14.5833H8.10417L7.58333 16.6667H22.9167V18.75H4.91667L6.21458 13.5531L3.37083 3.12499H0V1.04166ZM14.5833 2.08332V5.20832H17.7083V7.29166H14.5833V10.4167H12.5V7.29166H9.375V5.20832H12.5V2.08332H14.5833ZM4.16667 21.875C4.16667 21.3225 4.38616 20.7926 4.77686 20.4018C5.16756 20.0112 5.69747 19.7917 6.25 19.7917C6.80254 19.7917 7.33244 20.0112 7.72314 20.4018C8.11384 20.7926 8.33333 21.3225 8.33333 21.875C8.33333 22.4275 8.11384 22.9574 7.72314 23.3481C7.33244 23.7388 6.80254 23.9583 6.25 23.9583C5.69747 23.9583 5.16756 23.7388 4.77686 23.3481C4.38616 22.9574 4.16667 22.4275 4.16667 21.875ZM18.75 21.875C18.75 21.3225 18.9695 20.7926 19.3602 20.4018C19.7509 20.0112 20.2808 19.7917 20.8333 19.7917C21.3859 19.7917 21.9158 20.0112 22.3065 20.4018C22.6972 20.7926 22.9167 21.3225 22.9167 21.875C22.9167 22.4275 22.6972 22.9574 22.3065 23.3481C21.9158 23.7388 21.3859 23.9583 20.8333 23.9583C20.2808 23.9583 19.7509 23.7388 19.3602 23.3481C18.9695 22.9574 18.75 22.4275 18.75 21.875Z" fill="#F8F8F8"/>
</svg>
