<svg width="40" height="37" viewBox="0 0 40 37" fill="none" xmlns="http://www.w3.org/2000/svg">
<path fill-rule="evenodd" clip-rule="evenodd" d="M20.0001 27.2629C23.713 27.2629 27.2738 25.8267 29.8992 23.2703C32.5247 20.7139 33.9996 17.2467 33.9996 13.6315C33.9996 10.0162 32.5247 6.54895 29.8992 3.99256C27.2738 1.43617 23.713 0 20.0001 0C16.2872 0 12.7263 1.43617 10.1009 3.99256C7.47547 6.54895 6.00052 10.0162 6.00052 13.6315C6.00052 17.2467 7.47547 20.7139 10.1009 23.2703C12.7263 25.8267 16.2872 27.2629 20.0001 27.2629ZM20.0001 7.7894C19.4321 7.7894 19.0521 8.4515 18.2921 9.78154L18.0961 10.1243C17.8801 10.5021 17.7721 10.689 17.6041 10.8136C17.4341 10.9383 17.2242 10.985 16.8042 11.0765L16.4242 11.1622C14.9482 11.4874 14.2102 11.649 14.0343 12.1982C13.8583 12.7493 14.3622 13.3218 15.3682 14.4669L15.6282 14.7629C15.9142 15.0881 16.0582 15.2497 16.1222 15.4522C16.1862 15.6547 16.1642 15.8709 16.1222 16.3052L16.0822 16.7005C15.9302 18.2291 15.8542 18.9945 16.3122 19.3333C16.7722 19.6721 17.4641 19.3625 18.8461 18.7432L19.2021 18.5836C19.5961 18.4083 19.7921 18.3207 20.0001 18.3207C20.2081 18.3207 20.404 18.4083 20.798 18.5836L21.154 18.7432C22.536 19.3645 23.228 19.6721 23.6879 19.3333C24.1479 18.9945 24.0699 18.2291 23.9179 16.7005L23.8779 16.3052C23.8359 15.8709 23.8139 15.6547 23.8779 15.4522C23.9419 15.2516 24.0859 15.0881 24.3719 14.7629L24.6319 14.4669C25.6379 13.3218 26.1419 12.7493 25.9659 12.1982C25.7899 11.649 25.0519 11.4874 23.5759 11.1622L23.196 11.0765C22.776 10.985 22.566 10.9402 22.396 10.8136C22.228 10.689 22.12 10.5021 21.904 10.1243L21.708 9.78154C20.948 8.4515 20.568 7.7894 20.0001 7.7894Z" fill="#2E9375"/>
<path d="M4.99049 21.4111L1.98459 24.4392C0.904625 25.5297 0.364643 26.0731 0.176649 26.5346C-0.249337 27.5861 0.116651 28.7507 1.04262 29.3037C1.45061 29.5452 2.18258 29.6211 3.65254 29.7711C4.48051 29.8568 4.89649 29.8996 5.24248 30.0301C6.02046 30.3202 6.62244 30.9297 6.91243 31.7126C7.04042 32.0631 7.08242 32.4798 7.16642 33.3152C7.31642 34.7952 7.39241 35.5352 7.6324 35.9461C8.18039 36.8808 9.33835 37.2489 10.3803 36.8185C10.8363 36.6316 11.3763 36.0863 12.4582 34.9978L17.4221 29.9931C14.8072 29.6018 12.3221 28.6222 10.1641 27.1321C8.00612 25.642 6.23467 23.6844 4.99049 21.4111ZM22.5799 29.995L27.5438 34.9997C28.6237 36.0902 29.1637 36.6335 29.6197 36.8224C30.6616 37.2508 31.8196 36.8828 32.3676 35.9481C32.6076 35.5391 32.6816 34.7991 32.8316 33.3191C32.9176 32.4818 32.9596 32.065 33.0876 31.7145C33.3756 30.9317 33.9795 30.3222 34.7575 30.032C35.1035 29.9015 35.5175 29.8607 36.3475 29.775C37.8154 29.6231 38.5494 29.5471 38.9574 29.3057C39.8834 28.7526 40.2493 27.5861 39.8234 26.5365C39.6354 26.075 39.0954 25.5297 38.0154 24.4412L35.0095 21.4111C33.7653 23.6844 31.9939 25.6439 29.8359 27.134C27.6779 28.6241 25.1928 29.6037 22.5779 29.995H22.5799Z" fill="#2E9375"/>
</svg>
