<svg width="34" height="37" viewBox="0 0 34 37" fill="none" xmlns="http://www.w3.org/2000/svg">
<path fill-rule="evenodd" clip-rule="evenodd" d="M15.674 0.236907C16.529 -0.078969 17.471 -0.078969 18.326 0.236907L31.5482 5.12402C32.2685 5.39013 32.8891 5.86659 33.3273 6.48972C33.7654 7.11285 34.0001 7.85295 34 8.61109V18.5957C34.0001 21.7075 33.121 24.7578 31.4612 27.4049C29.8014 30.052 27.4266 32.1912 24.6028 33.5828L18.2674 36.705C17.8739 36.899 17.44 37 17 37C16.56 37 16.1261 36.899 15.7326 36.705L9.39722 33.5828C6.57341 32.1912 4.19856 30.052 2.5388 27.4049C0.879034 24.7578 -6.80599e-05 21.7075 2.93114e-08 18.5957V8.61109C-9.57636e-05 7.85295 0.234607 7.11285 0.672733 6.48972C1.11086 5.86659 1.73153 5.39013 2.45178 5.12402L15.674 0.236907ZM17 3.72398L3.77778 8.61109V18.5957C3.77821 21.0157 4.4623 23.3879 5.7534 25.4463C7.04449 27.5047 8.8916 29.1682 11.0878 30.2503L17 33.1677V3.72398Z" fill="#2E9375"/>
</svg>
