<svg width="51" height="37" viewBox="0 0 51 37" fill="none" xmlns="http://www.w3.org/2000/svg">
<path d="M30.1364 20.8125C28.2045 20.8125 26.5625 20.138 25.2102 18.7891C23.858 17.4401 23.1818 15.8021 23.1818 13.875C23.1818 11.9479 23.858 10.3099 25.2102 8.96094C26.5625 7.61198 28.2045 6.9375 30.1364 6.9375C32.0682 6.9375 33.7102 7.61198 35.0625 8.96094C36.4148 10.3099 37.0909 11.9479 37.0909 13.875C37.0909 15.8021 36.4148 17.4401 35.0625 18.7891C33.7102 20.138 32.0682 20.8125 30.1364 20.8125ZM13.9091 27.75C12.6341 27.75 11.543 27.2975 10.6358 26.3926C9.72863 25.4876 9.27427 24.3984 9.27273 23.125V4.625C9.27273 3.35312 9.72709 2.26471 10.6358 1.35975C11.5445 0.454791 12.6356 0.00154167 13.9091 0H46.3636C47.6386 0 48.7305 0.45325 49.6392 1.35975C50.5479 2.26625 51.0015 3.35467 51 4.625V23.125C51 24.3969 50.5464 25.4861 49.6392 26.3926C48.732 27.2991 47.6402 27.7515 46.3636 27.75H13.9091ZM18.5455 23.125H41.7273C41.7273 21.8531 42.1816 20.7647 43.0904 19.8597C43.9991 18.9548 45.0902 18.5015 46.3636 18.5V9.25C45.0886 9.25 43.9975 8.79752 43.0904 7.89256C42.1832 6.9876 41.7288 5.89842 41.7273 4.625H18.5455C18.5455 5.89687 18.0919 6.98606 17.1847 7.89256C16.2775 8.79906 15.1856 9.25154 13.9091 9.25V18.5C15.1841 18.5 16.276 18.9532 17.1847 19.8597C18.0934 20.7662 18.547 21.8547 18.5455 23.125ZM41.7273 37H4.63636C3.36136 37 2.27027 36.5475 1.36309 35.6426C0.455909 34.7376 0.00154545 33.6484 0 32.375V9.25C0 8.59479 0.222545 8.04596 0.667636 7.6035C1.11273 7.16104 1.66291 6.93904 2.31818 6.9375C2.975 6.9375 3.52595 7.1595 3.97105 7.6035C4.41614 8.0475 4.63791 8.59633 4.63636 9.25V32.375H41.7273C42.3841 32.375 42.935 32.597 43.3801 33.041C43.8252 33.485 44.047 34.0338 44.0454 34.6875C44.0454 35.3427 43.8229 35.8923 43.3778 36.3363C42.9327 36.7803 42.3825 37.0015 41.7273 37Z" fill="#2E9375"/>
</svg>
