<svg width="53" height="39" viewBox="0 0 53 39" fill="none" xmlns="http://www.w3.org/2000/svg">
<path d="M10.0714 32C10.0714 33.3261 10.5982 34.5979 11.5359 35.5355C12.4736 36.4732 13.7453 37 15.0714 37C16.3975 37 17.6693 36.4732 18.6069 35.5355C19.5446 34.5979 20.0714 33.3261 20.0714 32C20.0714 30.6739 19.5446 29.4021 18.6069 28.4645C17.6693 27.5268 16.3975 27 15.0714 27C13.7453 27 12.4736 27.5268 11.5359 28.4645C10.5982 29.4021 10.0714 30.6739 10.0714 32ZM35.0714 32C35.0714 33.3261 35.5982 34.5979 36.5359 35.5355C37.4736 36.4732 38.7453 37 40.0714 37C41.3975 37 42.6693 36.4732 43.6069 35.5355C44.5446 34.5979 45.0714 33.3261 45.0714 32C45.0714 30.6739 44.5446 29.4021 43.6069 28.4645C42.6693 27.5268 41.3975 27 40.0714 27C38.7453 27 37.4736 27.5268 36.5359 28.4645C35.5982 29.4021 35.0714 30.6739 35.0714 32Z" stroke="#2E9375" stroke-width="4" stroke-linecap="round" stroke-linejoin="round"/>
<path d="M10.0714 32H5.07141V22M2.57141 2H30.0714V32M20.0714 32H35.0714M45.0714 32H50.0714V17M50.0714 17H30.0714M50.0714 17L42.5714 4.5H30.0714M5.07141 12H15.0714" stroke="#2E9375" stroke-width="4" stroke-linecap="round" stroke-linejoin="round"/>
</svg>
