<svg width="55" height="55" viewBox="0 0 55 55" fill="none" xmlns="http://www.w3.org/2000/svg">
<path d="M35.9543 0H19.0803C3.66929 0 0.00354004 3.66575 0.00354004 19.0492V35.9232C0.00354004 51.3315 3.64179 55 19.0528 55H35.9268C51.335 55 55.0035 51.3618 55.0035 35.9507V19.0768C55.0035 3.66575 51.3653 0 35.9543 0ZM44.405 39.2425H40.3928C38.8748 39.2425 38.4183 38.0133 35.6958 35.2907C33.3198 33 32.316 32.714 31.7138 32.714C30.8833 32.714 30.655 32.9422 30.655 34.089V37.697C30.655 38.6733 30.3388 39.2453 27.7895 39.2453C25.3155 39.079 22.9163 38.3273 20.7897 37.0522C18.663 35.7771 16.8698 34.015 15.5575 31.911C12.4423 28.0335 10.2746 23.4826 9.22704 18.6203C9.22704 18.018 9.45529 17.4735 10.602 17.4735H14.6115C15.6428 17.4735 16.014 17.9328 16.4183 18.9915C18.3653 24.7225 21.6873 29.7055 23.0348 29.7055C23.5518 29.7055 23.7773 29.4772 23.7773 28.1875V22.286C23.6068 19.5938 22.1768 19.3655 22.1768 18.392C22.1952 18.1352 22.3128 17.8957 22.5048 17.7242C22.6968 17.5528 22.9481 17.4628 23.2053 17.4735H29.5083C30.369 17.4735 30.655 17.9025 30.655 18.9338V26.8978C30.655 27.7585 31.0263 28.0445 31.2848 28.0445C31.8018 28.0445 32.2005 27.7585 33.1465 26.8125C35.1784 24.3346 36.8385 21.574 38.0745 18.6175C38.2009 18.2624 38.4399 17.9583 38.7552 17.7518C39.0705 17.5452 39.4448 17.4475 39.8208 17.4735H43.833C45.0348 17.4735 45.2905 18.0758 45.0348 18.9338C43.5759 22.2019 41.7707 25.3043 39.6503 28.1875C39.2185 28.8475 39.0453 29.1912 39.6503 29.964C40.049 30.5662 41.4543 31.7405 42.4003 32.857C43.775 34.2283 44.9166 35.8148 45.78 37.554C46.1238 38.6705 45.549 39.2425 44.405 39.2425Z" fill="#0076FE"/>
</svg>
