<svg width="242" height="55" viewBox="0 0 242 55" fill="none" xmlns="http://www.w3.org/2000/svg">
<path d="M75.5733 8.61244C75.1299 6.94768 74.2652 5.43 73.0651 4.21053C71.8651 2.99107 70.3716 2.11237 68.7334 1.66197C62.7359 0 38.6001 0 38.6001 0C38.6001 0 14.4633 0.0504354 8.46667 1.7124C6.82858 2.16288 5.3352 3.04161 4.13523 4.26107C2.93527 5.48053 2.07059 6.99817 1.62731 8.66287C-0.186752 19.4921 -0.89054 35.9921 1.67694 46.3876C2.12022 48.0523 2.9849 49.5699 4.18486 50.7894C5.38483 52.0088 6.87821 52.8876 8.5163 53.338C14.5134 55 38.6497 55 38.6497 55C38.6497 55 62.786 55 68.7831 53.338C70.4211 52.8876 71.9145 52.0088 73.1145 50.7894C74.3145 49.5699 75.1791 48.0523 75.6224 46.3876C77.5353 35.5435 78.1251 19.0535 75.5728 8.61292L75.5733 8.61244Z" fill="#FF0000"/>
<path d="M30.918 39.2854L50.9407 27.4999L30.918 15.7139V39.2854Z" fill="white"/>
<path d="M232.187 15.9656C234.814 15.9656 236.796 16.469 238.184 17.4258C239.571 18.3831 240.563 19.8938 241.158 21.9592C241.752 24.0242 242 26.8443 242 30.4708V36.3641H229.263V38.1768L229.461 43.1632C229.61 44.2714 229.858 45.0774 230.254 45.5808C230.651 46.0846 231.295 46.3363 232.138 46.3363C233.278 46.3363 234.071 45.8834 234.467 44.977C234.913 44.0701 235.111 42.559 235.161 40.494L241.752 40.897C241.802 41.1991 241.802 41.6021 241.802 42.1055C241.802 45.2786 240.959 47.6462 239.225 49.2073C237.49 50.7684 235.111 51.5744 231.989 51.5744C228.222 51.5744 225.595 50.3659 224.108 47.9988C222.622 45.6312 221.829 41.9038 221.829 36.9179V30.8234C221.997 22.2614 223.479 15.9906 232.187 15.9656ZM140.548 16.6203V41.8538C140.548 43.365 140.697 44.4731 141.044 45.1278C141.747 46.528 143.571 46.1701 144.562 45.4804C145.135 45.0873 145.596 44.5492 145.901 43.9193V16.6198H153.483V51.0201H147.536L146.892 46.7893H146.743C145.108 49.9624 142.679 51.5739 139.458 51.5739C134.5 51.5614 133.286 47.931 132.997 44.244L132.979 43.9841C132.943 43.4257 132.922 42.8664 132.916 42.3068V16.6203H140.548H140.548ZM179.652 16.6203V41.8538C179.652 43.365 179.801 44.4731 180.147 45.1278C180.852 46.528 182.675 46.1701 183.666 45.4804C184.239 45.0873 184.7 44.5492 185.005 43.9193V16.6198H192.587V51.0201H186.64L185.996 46.7893H185.847C184.212 49.9624 181.783 51.5739 178.562 51.5739C173.604 51.5614 172.39 47.931 172.101 44.244L172.083 43.9841C172.047 43.4257 172.026 42.8664 172.02 42.3068V16.6203H179.652ZM118.543 15.9656C121.021 15.9656 123.053 16.469 124.54 17.5267C126.026 18.5844 127.166 20.1964 127.86 22.4122C128.554 24.6285 128.901 27.5998 128.901 31.2768V36.2627C128.901 39.9397 128.554 42.8611 127.86 45.0769C127.166 47.2936 126.076 48.9052 124.54 49.9629C123.004 50.9701 120.922 51.524 118.345 51.524C115.668 51.5744 113.586 51.0206 112.05 50.0133C110.514 48.9556 109.423 47.3436 108.779 45.1278C108.135 42.9115 107.837 39.9901 107.837 36.3136V31.3268C107.837 27.6498 108.184 24.628 108.928 22.4117C109.671 20.1455 110.811 18.5335 112.397 17.5267C113.983 16.5189 116.015 15.9651 118.543 15.9651V15.9656ZM204.482 2.16504V20.2968H204.532C205.226 18.9874 206.118 17.9297 207.357 17.1237C208.514 16.3329 209.878 15.912 211.272 15.9152C213.106 15.9152 214.494 16.4186 215.534 17.3754C216.575 18.3831 217.319 19.9442 217.764 22.1101C218.197 24.2082 218.443 27.1099 218.458 30.7691L218.458 31.126V36.5653C218.458 41.6521 217.814 45.4299 216.624 47.8475C215.386 50.265 213.502 51.474 210.925 51.474C209.488 51.474 208.199 51.1214 207.01 50.4667C205.958 49.8438 205.086 48.9506 204.481 47.8768L204.383 47.6962H204.235L203.442 50.9701H197.147V2.16552H204.482V2.16504ZM174.15 3.92788V10.1727H166.617V51.0201H159.183V10.1732H151.6V3.92836H174.151L174.15 3.92788ZM92.4236 3.92788L92.4283 3.94709C92.5006 4.2742 93.5026 8.80137 94.6049 14.076L94.6918 14.4938L94.8232 15.1255L94.9112 15.5496L94.9551 15.7624L95.043 16.189L95.087 16.4027L95.1744 16.8307L95.302 17.4566C96.0465 21.109 96.7569 24.7721 97.1818 27.3986H97.3803C97.7873 25.0425 98.3786 22.0274 99.0091 18.949L99.1745 18.1449C99.2577 17.7424 99.3409 17.3398 99.425 16.9383L99.5545 16.3153C100.411 12.2357 101.293 8.16172 102.2 4.09359L102.214 4.02875L102.237 3.92788H109.82L101.047 35.7094V50.9701H93.5636V35.7593H93.514L84.8407 3.9274L92.4236 3.92788ZM118.394 21.3041C117.353 21.3041 116.659 21.8584 116.213 23.0169C115.767 24.175 115.569 25.9379 115.569 28.4063V39.1342C115.569 41.6526 115.767 43.5158 116.164 44.6244C116.56 45.7321 117.304 46.2864 118.394 46.2864C119.435 46.2864 120.178 45.7321 120.624 44.6244C121.07 43.5158 121.268 41.6526 121.268 39.1342V28.4058C121.268 25.9379 121.07 24.1246 120.624 23.0165C120.178 21.8584 119.435 21.3041 118.394 21.3041ZM205.82 22.3118C205.216 22.8786 204.787 23.5775 204.531 24.4512L204.482 24.6285V44.1705C205.097 45.2282 205.969 45.9333 207.505 45.9838C208.299 45.9838 208.942 45.6816 209.439 45.0774C209.934 44.4731 210.281 43.4654 210.479 42.0551C210.669 40.7015 210.769 38.8368 210.776 36.462V31.6798C210.776 28.9601 210.677 26.8952 210.529 25.4345C210.33 23.9738 210.083 22.9161 209.637 22.3118C208.774 21.0524 206.911 21.0677 205.82 22.3118ZM232.039 21.1532C231.196 21.2037 230.601 21.4554 230.254 21.9088C229.858 22.4122 229.61 23.1678 229.461 24.2759C229.315 25.3615 229.265 29.1561 229.263 29.3079V31.7807H234.814V29.6V29.6417C234.81 30.404 234.795 29.1994 234.761 27.7204L234.756 27.5215C234.725 26.2217 234.679 24.7726 234.616 24.2759C234.467 23.1173 234.219 22.3113 233.823 21.8584C233.426 21.4049 232.831 21.1532 232.038 21.1532H232.039Z" fill="#282828"/>
</svg>
